<svg width="18" height="18" viewBox="0 0 18 18" fill="none" xmlns="http://www.w3.org/2000/svg">
    <path fill-rule="evenodd" clip-rule="evenodd" d="M8.67627 0.666687C4.25268 0.666687 0.666656 4.17351 0.666656 8.4994C0.666656 12.8253 4.25268 16.3321 8.67627 16.3321C10.5682 16.3321 12.307 15.6906 13.6775 14.6179L16.2809 17.1572L16.3501 17.2155C16.5918 17.3905 16.9345 17.3706 17.1532 17.1561C17.3938 16.9202 17.3933 16.5383 17.1521 16.303L14.5793 13.7936C15.8874 12.3995 16.6859 10.5406 16.6859 8.4994C16.6859 4.17351 13.0999 0.666687 8.67627 0.666687ZM8.67627 1.87313C12.4185 1.87313 15.4522 4.83982 15.4522 8.4994C15.4522 12.159 12.4185 15.1257 8.67627 15.1257C4.93404 15.1257 1.90035 12.159 1.90035 8.4994C1.90035 4.83982 4.93404 1.87313 8.67627 1.87313Z" fill="#999999"/>
    </svg>
    