<svg width="8" height="10" viewBox="0 0 8 10" fill="none" xmlns="http://www.w3.org/2000/svg">
    <path fill-rule="evenodd" clip-rule="evenodd" d="M0.733388 0.541656V0.54999C0.374222 0.54999 0.0833883 0.841657 0.0833883 1.19999C0.0833883 1.55832 0.374222 1.84999 0.733388 1.84999H3.22422C3.58339 1.84999 3.87506 1.55832 3.87506 1.19082C3.87506 0.833323 3.58339 0.541656 3.22422 0.541656H0.733388ZM7.26672 5.61665H0.733388C0.374222 5.61665 0.0833883 5.32499 0.0833883 4.96666C0.0833883 4.60832 0.374222 4.31582 0.733388 4.31582H7.26672C7.62505 4.31582 7.91672 4.60832 7.91672 4.96666C7.91672 5.32499 7.62505 5.61665 7.26672 5.61665ZM7.2667 9.42499H0.733362C0.483362 9.45832 0.241695 9.33332 0.108362 9.12499C-0.0249715 8.90832 -0.0249715 8.63332 0.108362 8.42499C0.241695 8.20832 0.483362 8.09166 0.733362 8.11666H7.2667C7.5992 8.14999 7.85003 8.43332 7.85003 8.77499C7.85003 9.10749 7.5992 9.39166 7.2667 9.42499Z" fill="#C2E2E9"/>
    </svg>
    